<svg width="1884" height="1340" viewBox="0 0 1884 1340" fill="none" xmlns="http://www.w3.org/2000/svg">
<circle cx="1390.03" cy="446.712" r="1.21175" fill="white" fill-opacity="0.1"/>
<circle cx="308.704" cy="715.04" r="1.21175" fill="white" fill-opacity="0.3"/>
<circle cx="1188.04" cy="679.661" r="1.21175" fill="white" fill-opacity="0.6"/>
<circle cx="130.501" cy="1008.95" r="1.21175" fill="white" fill-opacity="0.1"/>
<circle cx="1062.15" cy="801.763" r="1.21175" fill="white" fill-opacity="0.6"/>
<circle cx="1687.34" cy="936.243" r="1.21175" fill="white" fill-opacity="0.3"/>
<circle cx="1258.96" cy="285.106" r="1.21175" fill="white" fill-opacity="0.1"/>
<circle cx="1476.56" cy="528.848" r="1.21175" fill="white" fill-opacity="0.1"/>
<circle cx="1330.13" cy="908.388" r="1.21175" fill="white" fill-opacity="0.3"/>
<circle cx="1037.06" cy="675.169" r="1.21175" fill="white" fill-opacity="0.3"/>
<circle cx="51.7821" cy="410.454" r="1.21175" fill="white" fill-opacity="0.3"/>
<circle cx="1282.3" cy="643.255" r="1.21175" fill="white" fill-opacity="0.15"/>
<circle cx="835.43" cy="635.93" r="1.21175" fill="white" fill-opacity="0.7"/>
<circle cx="533.391" cy="654.157" r="1.21175" fill="white" fill-opacity="0.15"/>
<circle cx="1447.27" cy="201.274" r="1.21175" fill="white" fill-opacity="0.3"/>
<circle cx="269.868" cy="778.22" r="1.21175" fill="white" fill-opacity="0.1"/>
<circle cx="1328.38" cy="944.208" r="1.21175" fill="white" fill-opacity="0.3"/>
<circle cx="1078.35" cy="402.204" r="1.21175" fill="white" fill-opacity="0.15"/>
<circle cx="909.337" cy="329.798" r="1.21175" fill="white" fill-opacity="0.3"/>
<circle cx="612.454" cy="404.927" r="1.21175" fill="white" fill-opacity="0.1"/>
<circle cx="1361.79" cy="873.766" r="1.21175" fill="white" fill-opacity="0.3"/>
<circle cx="1059.91" cy="161.751" r="1.21175" fill="white" fill-opacity="0.1"/>
<circle cx="318.477" cy="250.473" r="1.21175" fill="white" fill-opacity="0.3"/>
<circle cx="17.0828" cy="530.825" r="1.21175" fill="white" fill-opacity="0.3"/>
<circle cx="112.079" cy="943.934" r="1.21175" fill="white" fill-opacity="0.1"/>
<circle cx="1666.74" cy="488.298" r="1.21175" fill="white" fill-opacity="0.1"/>
<circle cx="834.587" cy="167.321" r="1.21175" fill="white" fill-opacity="0.3"/>
<circle cx="1193.95" cy="1071.41" r="1.21175" fill="white" fill-opacity="0.3"/>
<circle cx="1612.21" cy="384.872" r="1.21175" fill="white" fill-opacity="0.15"/>
<circle cx="1367.46" cy="371.372" r="1.21175" fill="white" fill-opacity="0.1"/>
<circle cx="801.708" cy="327.438" r="1.21175" fill="white" fill-opacity="0.3"/>
<circle cx="1411.99" cy="978.786" r="1.21175" fill="white" fill-opacity="0.1"/>
<circle cx="1248.36" cy="842.595" r="1.21175" fill="white" fill-opacity="0.6"/>
<circle cx="669.235" cy="228.528" r="1.21175" fill="white" fill-opacity="0.15"/>
<circle cx="1700.47" cy="270.181" r="1.21175" fill="white" fill-opacity="0.3"/>
<circle cx="1625.14" cy="171.216" r="1.21175" fill="white" fill-opacity="0.3"/>
<circle cx="1314.35" cy="238.212" r="1.21175" fill="white" fill-opacity="0.1"/>
<circle cx="1117.19" cy="941.309" r="1.21175" fill="white" fill-opacity="0.3"/>
<circle cx="197.048" cy="545.919" r="1.21175" fill="white" fill-opacity="0.3"/>
<circle cx="534.72" cy="891.055" r="1.21175" fill="white" fill-opacity="0.1"/>
<circle cx="250.696" cy="602.735" r="1.21175" fill="white" fill-opacity="0.6"/>
<circle cx="542.22" cy="204.614" r="1.21175" fill="white" fill-opacity="0.3"/>
<circle cx="109.473" cy="1004.98" r="1.21175" fill="white" fill-opacity="0.3"/>
<circle cx="969.837" cy="564.204" r="1.21175" fill="white" fill-opacity="0.3"/>
<circle cx="1280.34" cy="1067.35" r="1.21175" fill="white" fill-opacity="0.15"/>
<circle cx="224.388" cy="543.376" r="1.21175" fill="white" fill-opacity="0.3"/>
<circle cx="694.212" cy="728.04" r="1.21175" fill="white" fill-opacity="0.3"/>
<circle cx="236.005" cy="322.884" r="1.21175" fill="white" fill-opacity="0.15"/>
<circle cx="554.7" cy="552.68" r="1.21175" fill="white" fill-opacity="0.3"/>
<circle cx="690.454" cy="361.985" r="1.21175" fill="white" fill-opacity="0.1"/>
<circle cx="1648.21" cy="997.2" r="1.21175" fill="white" fill-opacity="0.3"/>
<circle cx="574.333" cy="433.904" r="1.81763" fill="white" fill-opacity="0.3"/>
<circle cx="494.06" cy="411.802" r="1.81763" fill="white" fill-opacity="0.3"/>
<circle cx="1594.2" cy="1036.54" r="1.81763" fill="white" fill-opacity="0.3"/>
<circle cx="1273.46" cy="461.677" r="1.81763" fill="white" fill-opacity="0.3"/>
<circle cx="1457.16" cy="142.857" r="1.81763" fill="white" fill-opacity="0.1"/>
<circle cx="535.271" cy="1021.48" r="1.81763" fill="white" fill-opacity="0.15"/>
<circle cx="1627.2" cy="352.779" r="1.81763" fill="white" fill-opacity="0.3"/>
<circle cx="897.732" cy="415.693" r="1.81763" fill="white" fill-opacity="0.1"/>
<circle cx="550.81" cy="338.724" r="1.81763" fill="white" fill-opacity="0.1"/>
<circle cx="503.583" cy="427.075" r="1.81763" fill="white" fill-opacity="0.15"/>
<circle cx="262.654" cy="385.794" r="1.81763" fill="white" fill-opacity="0.1"/>
<circle cx="1602.58" cy="492.185" r="1.81763" fill="white" fill-opacity="0.3"/>
<circle cx="1455.43" cy="259.911" r="1.81763" fill="white" fill-opacity="0.1"/>
<circle cx="790.747" cy="47.8098" r="1.81763" fill="white" fill-opacity="0.15"/>
<circle cx="544.669" cy="511.654" r="1.81763" fill="white" fill-opacity="0.1"/>
<circle cx="1531.93" cy="782.404" r="1.81763" fill="white" fill-opacity="0.3"/>
<circle cx="1664.38" cy="1046.68" r="1.81763" fill="white" fill-opacity="0.1"/>
<circle cx="579.216" cy="535.724" r="1.81763" fill="white" fill-opacity="0.3"/>
<circle cx="1455.22" cy="231.888" r="1.81763" fill="white" fill-opacity="0.1"/>
<circle cx="280.708" cy="280.747" r="1.81763" fill="white" fill-opacity="0.3"/>
<circle cx="1155.92" cy="484.474" r="1.81763" fill="white" fill-opacity="0.7"/>
<circle cx="1473.55" cy="336.169" r="1.81763" fill="white" fill-opacity="0.1"/>
<circle cx="67.552" cy="732.685" r="1.81763" fill="white" fill-opacity="0.1"/>
<circle cx="3.41919" cy="17.7864" r="1.81763" fill="white" fill-opacity="0.7"/>
<circle cx="1206.58" cy="939.806" r="1.81763" fill="white" fill-opacity="0.3"/>
<circle cx="810.302" cy="164.63" r="1.81763" fill="white" fill-opacity="0.1"/>
<circle cx="1463.7" cy="637.911" r="1.81763" fill="white" fill-opacity="0.3"/>
<circle cx="1475.94" cy="998.068" r="1.81763" fill="white" fill-opacity="0.1"/>
<circle cx="1651.02" cy="836.263" r="1.81763" fill="white" fill-opacity="0.3"/>
<circle cx="485.915" cy="916.325" r="1.81763" fill="white" fill-opacity="0.1"/>
<circle cx="1215.33" cy="698.63" r="1.81763" fill="white" fill-opacity="0.6"/>
<circle cx="578.966" cy="1019.47" r="1.81763" fill="white" fill-opacity="0.7"/>
<circle cx="1230.38" cy="95.8293" r="1.81763" fill="white" fill-opacity="0.3"/>
<circle cx="15.2161" cy="818.88" r="1.81763" fill="white" fill-opacity="0.3"/>
<circle cx="1557.71" cy="868.169" r="1.81763" fill="white" fill-opacity="0.7"/>
<circle cx="1729.32" cy="976.521" r="1.81763" fill="white" fill-opacity="0.3"/>
<circle cx="1313.83" cy="1006.39" r="1.81763" fill="white" fill-opacity="0.1"/>
<circle cx="1378.43" cy="1.81251" r="0.605482" fill="white" fill-opacity="0.1"/>
<circle cx="674.898" cy="601.715" r="0.605482" fill="white" fill-opacity="0.1"/>
<circle cx="699.457" cy="315.254" r="0.605482" fill="white" fill-opacity="0.1"/>
<circle cx="43.0274" cy="439.652" r="0.605482" fill="white" fill-opacity="0.1"/>
<circle cx="1435.37" cy="437.684" r="0.605482" fill="white" fill-opacity="0.3"/>
<circle cx="331.277" cy="140.648" r="0.605482" fill="white" fill-opacity="0.15"/>
<circle cx="564.5" cy="719.789" r="0.605482" fill="white" fill-opacity="0.15"/>
<circle cx="244.504" cy="908.504" r="0.605482" fill="white" fill-opacity="0.1"/>
<circle cx="1571.08" cy="729.285" r="0.605482" fill="white" fill-opacity="0.7"/>
<circle cx="792.707" cy="637.41" r="0.605482" fill="white" fill-opacity="0.1"/>
<circle cx="1183.64" cy="988.832" r="0.605482" fill="white" fill-opacity="0.1"/>
<circle cx="1435.65" cy="1082.77" r="0.605482" fill="white" fill-opacity="0.15"/>
<circle cx="1345.33" cy="940.406" r="0.605482" fill="white" fill-opacity="0.7"/>
<circle cx="118.172" cy="705.238" r="0.605482" fill="white" fill-opacity="0.6"/>
<circle cx="133.855" cy="109.742" r="0.605482" fill="white" fill-opacity="0.1"/>
<circle cx="1630.82" cy="614.488" r="0.605482" fill="white" fill-opacity="0.3"/>
<circle cx="310.809" cy="313.988" r="0.605482" fill="white" fill-opacity="0.15"/>
<circle cx="374.551" cy="392.09" r="0.605482" fill="white" fill-opacity="0.3"/>
<circle cx="314.918" cy="439.5" r="0.605482" fill="white" fill-opacity="0.1"/>
<circle cx="963.398" cy="933.629" r="0.605482" fill="white" fill-opacity="0.6"/>
<circle cx="1146.08" cy="929.738" r="0.605482" fill="white" fill-opacity="0.1"/>
<circle cx="922.355" cy="536.156" r="0.605482" fill="white" fill-opacity="0.1"/>
<circle cx="1359.53" cy="618.176" r="0.605482" fill="white" fill-opacity="0.15"/>
<circle cx="1.66017" cy="527.449" r="0.605482" fill="white" fill-opacity="0.3"/>
<circle cx="573.344" cy="804.035" r="0.605482" fill="white" fill-opacity="0.3"/>
<circle cx="1416.47" cy="168.707" r="0.605482" fill="white" fill-opacity="0.3"/>
<circle cx="1182.39" cy="300.082" r="0.605482" fill="white" fill-opacity="0.1"/>
<circle cx="138.387" cy="67.2891" r="0.605482" fill="white" fill-opacity="0.3"/>
<circle cx="49.2188" cy="101.742" r="0.605482" fill="white" fill-opacity="0.1"/>
<circle cx="1731.02" cy="165.723" r="0.605482" fill="white" fill-opacity="0.1"/>
<circle cx="826.973" cy="291.547" r="0.605482" fill="white" fill-opacity="0.15"/>
<circle cx="848.723" cy="944.008" r="0.605482" fill="white" fill-opacity="0.7"/>
<circle cx="1037.8" cy="409.785" r="0.605482" fill="white" fill-opacity="0.8"/>
<circle cx="674.637" cy="124.422" r="0.605482" fill="white" fill-opacity="0.15"/>
<circle cx="204.836" cy="748.016" r="0.605482" fill="white" fill-opacity="0.1"/>
<circle cx="1604.41" cy="607.59" r="0.605482" fill="white" fill-opacity="0.1"/>
<circle cx="415.27" cy="644.004" r="0.605482" fill="white" fill-opacity="0.1"/>
<circle cx="408.09" cy="41.5664" r="0.605482" fill="white" fill-opacity="0.6"/>
<circle cx="1625.16" cy="595.602" r="0.605482" fill="white" fill-opacity="0.1"/>
<circle cx="1536.89" cy="996.207" r="0.605482" fill="white" fill-opacity="0.6"/>
<circle cx="1118.21" cy="477.113" r="0.605482" fill="white" fill-opacity="0.15"/>
<circle cx="1087.16" cy="60.1055" r="0.605482" fill="white" fill-opacity="0.1"/>
<circle cx="157.309" cy="98.5742" r="0.605482" fill="white" fill-opacity="0.6"/>
<circle cx="365.809" cy="782.73" r="0.605482" fill="white" fill-opacity="0.15"/>
<circle cx="1060.84" cy="1083.45" r="0.605482" fill="white" fill-opacity="0.1"/>
<circle cx="1572.26" cy="1070.14" r="0.605482" fill="white" fill-opacity="0.1"/>
<circle cx="1019.34" cy="164.527" r="0.605482" fill="white" fill-opacity="0.7"/>
<circle cx="695.777" cy="459.645" r="0.605482" fill="white" fill-opacity="0.8"/>
<circle cx="625.973" cy="131.051" r="0.605482" fill="white" fill-opacity="0.1"/>
<circle cx="89.957" cy="370.066" r="0.605482" fill="white" fill-opacity="0.6"/>
<circle cx="1195.32" cy="245.445" r="0.605482" fill="white" fill-opacity="0.1"/>
<circle cx="1033.91" cy="230.051" r="0.605482" fill="white" fill-opacity="0.15"/>
<circle cx="1322.21" cy="734.402" r="0.605482" fill="white" fill-opacity="0.15"/>
<circle cx="688.051" cy="35.9961" r="0.605482" fill="white" fill-opacity="0.1"/>
<circle cx="205.188" cy="1032.08" r="0.605482" fill="white" fill-opacity="0.15"/>
<circle cx="448.039" cy="796.027" r="0.605482" fill="white" fill-opacity="0.15"/>
<circle cx="457.809" cy="493.477" r="0.605482" fill="white" fill-opacity="0.3"/>
<circle cx="994.645" cy="788.543" r="0.605482" fill="white" fill-opacity="0.3"/>
<circle cx="237.371" cy="816.793" r="0.605482" fill="white" fill-opacity="0.1"/>
<circle cx="979.402" cy="533.152" r="0.605482" fill="white" fill-opacity="0.3"/>
<circle cx="737.543" cy="212.07" r="0.605482" fill="white" fill-opacity="0.1"/>
<circle cx="240.168" cy="225.031" r="0.605482" fill="white" fill-opacity="0.1"/>
<circle cx="43.0195" cy="799.828" r="0.605482" fill="white" fill-opacity="0.1"/>
<circle cx="1238.48" cy="839.961" r="0.605482" fill="white" fill-opacity="0.1"/>
<circle cx="208.363" cy="990.941" r="0.605482" fill="white" fill-opacity="0.1"/>
<circle cx="1201.85" cy="141.715" r="0.605482" fill="white" fill-opacity="0.3"/>
<circle cx="976.738" cy="769.113" r="0.605482" fill="white" fill-opacity="0.1"/>
<circle cx="399.074" cy="291.508" r="0.605482" fill="white" fill-opacity="0.6"/>
<circle cx="1307.68" cy="984.152" r="0.605482" fill="white" fill-opacity="0.1"/>
<circle cx="160.582" cy="663.777" r="0.605482" fill="white" fill-opacity="0.1"/>
<circle cx="60.0703" cy="849.711" r="0.605482" fill="white" fill-opacity="0.3"/>
<circle cx="1602.11" cy="1063.13" r="0.605482" fill="white" fill-opacity="0.15"/>
<circle cx="1689.55" cy="901.387" r="0.605482" fill="white" fill-opacity="0.3"/>
<circle cx="757.293" cy="135.648" r="0.605482" fill="white" fill-opacity="0.3"/>
<circle cx="7.77736" cy="371.59" r="0.605482" fill="white" fill-opacity="0.6"/>
<circle cx="623.816" cy="853.527" r="0.605482" fill="white" fill-opacity="0.1"/>
<circle cx="765.582" cy="224.504" r="0.605482" fill="white" fill-opacity="0.3"/>
<circle cx="1067.62" cy="745.559" r="0.605482" fill="white" fill-opacity="0.1"/>
<circle cx="78.7383" cy="273.219" r="0.605482" fill="white" fill-opacity="0.1"/>
<circle cx="1719.19" cy="171.965" r="0.605482" fill="white" fill-opacity="0.1"/>
<circle cx="108.84" cy="361.797" r="0.605482" fill="white" fill-opacity="0.3"/>
<circle cx="630.219" cy="129.324" r="0.605482" fill="white" fill-opacity="0.1"/>
<circle cx="1484.49" cy="46.8203" r="0.605482" fill="white" fill-opacity="0.1"/>
<circle cx="1145.8" cy="896.426" r="0.605482" fill="white" fill-opacity="0.3"/>
<circle cx="194.684" cy="13.1016" r="0.605482" fill="white" fill-opacity="0.1"/>
<circle cx="1602.39" cy="541.066" r="0.605482" fill="white" fill-opacity="0.3"/>
<circle cx="1410.89" cy="853.027" r="0.605482" fill="white" fill-opacity="0.15"/>
<circle cx="1041.7" cy="493.207" r="0.605482" fill="white" fill-opacity="0.3"/>
<circle cx="1217.36" cy="519.285" r="0.605482" fill="white" fill-opacity="0.3"/>
<circle cx="7.98439" cy="383.582" r="0.605482" fill="white" fill-opacity="0.1"/>
<circle cx="498.074" cy="403.227" r="0.605482" fill="white" fill-opacity="0.1"/>
<circle cx="1611.61" cy="845.074" r="0.605482" fill="white" fill-opacity="0.1"/>
<circle cx="1048.05" cy="140.68" r="0.605482" fill="white" fill-opacity="0.1"/>
<circle cx="1054.16" cy="853.766" r="0.605482" fill="white" fill-opacity="0.1"/>
<circle cx="1683.08" cy="84.2735" r="0.605482" fill="white" fill-opacity="0.15"/>
<circle cx="28.8633" cy="167.645" r="0.605482" fill="white" fill-opacity="0.1"/>
<circle cx="673.352" cy="345.836" r="0.605482" fill="white" fill-opacity="0.3"/>
<circle cx="516.199" cy="962.613" r="0.605482" fill="white" fill-opacity="0.15"/>
<circle cx="498.746" cy="465.797" r="0.605482" fill="white" fill-opacity="0.1"/>
<circle cx="399.465" cy="189.047" r="0.605482" fill="white" fill-opacity="0.15"/>
<circle cx="894.246" cy="155.887" r="0.605482" fill="white" fill-opacity="0.1"/>
<circle cx="643.484" cy="104.449" r="0.605482" fill="white" fill-opacity="0.1"/>
<circle cx="1160.39" cy="105.004" r="0.605482" fill="white" fill-opacity="0.3"/>
<circle cx="401.246" cy="64.9141" r="0.605482" fill="white" fill-opacity="0.15"/>
<circle cx="1009.91" cy="300.777" r="0.605482" fill="white" fill-opacity="0.3"/>
<circle cx="156.605" cy="1080.91" r="0.605482" fill="white" fill-opacity="0.1"/>
<circle cx="1627.9" cy="856.59" r="0.605482" fill="white" fill-opacity="0.1"/>
<circle cx="249.73" cy="676.645" r="0.605482" fill="white" fill-opacity="0.3"/>
<circle cx="1567.39" cy="0.761732" r="0.605482" fill="white" fill-opacity="0.15"/>
<circle cx="1478.88" cy="560.402" r="0.605482" fill="white" fill-opacity="0.1"/>
<circle cx="390.059" cy="348.504" r="0.605482" fill="white" fill-opacity="0.3"/>
<circle cx="1018.84" cy="841.426" r="0.605482" fill="white" fill-opacity="0.1"/>
<circle cx="334.848" cy="1036.46" r="0.605482" fill="white" fill-opacity="0.1"/>
<circle cx="1485.92" cy="687.613" r="0.605482" fill="white" fill-opacity="0.1"/>
<circle cx="825.496" cy="440.906" r="0.605482" fill="white" fill-opacity="0.1"/>
<circle cx="443.008" cy="159.426" r="0.605482" fill="white" fill-opacity="0.7"/>
<circle cx="713.305" cy="166.27" r="0.605482" fill="white" fill-opacity="0.15"/>
<circle cx="593.691" cy="139.496" r="0.605482" fill="white" fill-opacity="0.1"/>
<circle cx="1652.87" cy="771.996" r="0.605482" fill="white" fill-opacity="0.1"/>
<circle cx="1071.93" cy="238.168" r="0.605482" fill="white" fill-opacity="0.3"/>
<circle cx="672.57" cy="15.1797" r="0.605482" fill="white" fill-opacity="0.15"/>
<circle cx="536.176" cy="42.9063" r="0.605482" fill="white" fill-opacity="0.1"/>
<circle cx="1003.27" cy="95.1836" r="0.605482" fill="white" fill-opacity="0.6"/>
<circle cx="848.262" cy="885.113" r="0.605482" fill="white" fill-opacity="0.1"/>
<circle cx="1050.06" cy="273.535" r="0.605482" fill="white" fill-opacity="0.3"/>
<circle cx="1239.28" cy="495.492" r="0.605482" fill="white" fill-opacity="0.7"/>
<circle cx="1512.21" cy="196.965" r="0.605482" fill="white" fill-opacity="0.1"/>
<circle cx="408.234" cy="651.754" r="0.605482" fill="white" fill-opacity="0.3"/>
<circle cx="291.629" cy="11.8477" r="0.605482" fill="white" fill-opacity="0.1"/>
<circle cx="556.621" cy="189.707" r="0.605482" fill="white" fill-opacity="0.1"/>
<circle cx="1485.25" cy="1018.24" r="0.605482" fill="white" fill-opacity="0.1"/>
<circle cx="983.797" cy="233.824" r="0.605482" fill="white" fill-opacity="0.3"/>
<circle cx="632.449" cy="249.066" r="0.605482" fill="white" fill-opacity="0.3"/>
<circle cx="1601.23" cy="492.652" r="0.605482" fill="white" fill-opacity="0.3"/>
<circle cx="1359.34" cy="488.367" r="0.605482" fill="white" fill-opacity="0.1"/>
<circle cx="1210.11" cy="976.387" r="0.605482" fill="white" fill-opacity="0.1"/>
<circle cx="459.043" cy="842.422" r="0.605482" fill="white" fill-opacity="0.1"/>
<circle cx="1643.1" cy="924.445" r="0.605482" fill="white" fill-opacity="0.7"/>
<circle cx="65.957" cy="249.348" r="0.605482" fill="white" fill-opacity="0.15"/>
<circle cx="807.441" cy="350.844" r="0.605482" fill="white" fill-opacity="0.1"/>
<circle cx="982.941" cy="793.223" r="0.605482" fill="white" fill-opacity="0.3"/>
<circle cx="515.047" cy="75.1211" r="0.605482" fill="white" fill-opacity="0.15"/>
<circle cx="966.582" cy="908.605" r="0.605482" fill="white" fill-opacity="0.1"/>
<circle cx="1719.69" cy="143.664" r="0.605482" fill="white" fill-opacity="0.6"/>
<circle cx="703.324" cy="651.527" r="0.605482" fill="white" fill-opacity="0.3"/>
<circle cx="395.66" cy="507.973" r="0.605482" fill="white" fill-opacity="0.7"/>
<circle cx="487.785" cy="46.4531" r="0.605482" fill="white" fill-opacity="0.3"/>
<circle cx="544.84" cy="186.668" r="0.605482" fill="white" fill-opacity="0.3"/>
<circle cx="1501.94" cy="707.863" r="0.605482" fill="white" fill-opacity="0.7"/>
<circle cx="1141.38" cy="560.031" r="0.605482" fill="white" fill-opacity="0.1"/>
<circle cx="110.012" cy="752.773" r="0.605482" fill="white" fill-opacity="0.1"/>
<circle cx="323.383" cy="1033.29" r="0.605482" fill="white" fill-opacity="0.15"/>
<circle cx="1004.26" cy="1073.22" r="0.605482" fill="white" fill-opacity="0.3"/>
<circle cx="473.926" cy="625.238" r="0.605482" fill="white" fill-opacity="0.1"/>
<circle cx="677.98" cy="170.645" r="0.605482" fill="white" fill-opacity="0.3"/>
<circle cx="107.449" cy="1015.15" r="0.605482" fill="white" fill-opacity="0.1"/>
<circle cx="1727.53" cy="666.543" r="0.605482" fill="white" fill-opacity="0.3"/>
<circle cx="1538.96" cy="311.383" r="0.605482" fill="white" fill-opacity="0.7"/>
<circle cx="810.711" cy="78.8633" r="0.605482" fill="white" fill-opacity="0.1"/>
<circle cx="266.02" cy="899.359" r="0.605482" fill="white" fill-opacity="0.1"/>
<circle cx="1034.17" cy="338.699" r="0.605482" fill="white" fill-opacity="0.1"/>
<circle cx="1693.69" cy="553.41" r="0.605482" fill="white" fill-opacity="0.1"/>
<circle cx="1735.61" cy="478.598" r="0.605482" fill="white" fill-opacity="0.6"/>
<circle cx="1340.07" cy="117.297" r="0.605482" fill="white" fill-opacity="0.6"/>
<circle cx="1557.95" cy="290.391" r="0.605482" fill="white" fill-opacity="0.1"/>
<circle cx="353.164" cy="867.473" r="0.605482" fill="white" fill-opacity="0.1"/>
<circle cx="134.121" cy="314.512" r="0.605482" fill="white" fill-opacity="0.3"/>
<circle cx="838.918" cy="518.715" r="0.605482" fill="white" fill-opacity="0.3"/>
<circle cx="1577.61" cy="214.039" r="0.605482" fill="white" fill-opacity="0.15"/>
<circle cx="1389.97" cy="607.742" r="0.605482" fill="white" fill-opacity="0.3"/>
<circle cx="674.719" cy="1014.45" r="0.605482" fill="white" fill-opacity="0.15"/>
<circle cx="1502.87" cy="803.383" r="0.605482" fill="white" fill-opacity="0.3"/>
<circle cx="1251.07" cy="963.02" r="0.605482" fill="white" fill-opacity="0.6"/>
<circle cx="330.895" cy="802.691" r="0.605482" fill="white" fill-opacity="0.3"/>
<circle cx="536.293" cy="443.316" r="0.605482" fill="white" fill-opacity="0.3"/>
<circle cx="523.23" cy="240.188" r="0.605482" fill="white" fill-opacity="0.1"/>
<circle cx="1007.77" cy="601.98" r="0.605482" fill="white" fill-opacity="0.3"/>
<circle cx="1401.38" cy="631.777" r="0.605482" fill="white" fill-opacity="0.3"/>
<circle cx="341.395" cy="982.18" r="0.605482" fill="white" fill-opacity="0.1"/>
<circle cx="846.871" cy="1059.15" r="0.605482" fill="white" fill-opacity="0.1"/>
<circle cx="397.004" cy="436.832" r="0.605482" fill="white" fill-opacity="0.15"/>
<circle cx="1380.11" cy="296.746" r="0.605482" fill="white" fill-opacity="0.3"/>
<circle cx="1217.63" cy="929.246" r="0.605482" fill="white" fill-opacity="0.15"/>
<circle cx="1340.19" cy="771.16" r="0.605482" fill="white" fill-opacity="0.6"/>
<circle cx="90.5508" cy="715.73" r="0.605482" fill="white" fill-opacity="0.15"/>
<circle cx="645.738" cy="671.715" r="0.605482" fill="white" fill-opacity="0.3"/>
<circle cx="696.391" cy="322.922" r="0.605482" fill="white" fill-opacity="0.3"/>
<circle cx="24.6367" cy="18.9024" r="0.605482" fill="white" fill-opacity="0.3"/>
<circle cx="745.488" cy="845.645" r="0.605482" fill="white" fill-opacity="0.1"/>
<circle cx="397.043" cy="519.848" r="0.605482" fill="white" fill-opacity="0.1"/>
<circle cx="378.723" cy="512.551" r="0.605482" fill="white" fill-opacity="0.3"/>
<circle cx="1048.82" cy="401.18" r="0.605482" fill="white" fill-opacity="0.1"/>
<circle cx="133.305" cy="90.3203" r="0.605482" fill="white" fill-opacity="0.15"/>
<circle cx="1198.49" cy="472.898" r="0.605482" fill="white" fill-opacity="0.6"/>
<circle cx="1193.27" cy="313.711" r="0.605482" fill="white" fill-opacity="0.3"/>
<circle cx="1669.16" cy="164.563" r="0.605482" fill="white" fill-opacity="0.1"/>
<circle cx="194.855" cy="931.828" r="0.605482" fill="white" fill-opacity="0.3"/>
<circle cx="734.137" cy="155.926" r="0.605482" fill="white" fill-opacity="0.1"/>
<circle cx="1496.75" cy="27.7539" r="0.605482" fill="white" fill-opacity="0.1"/>
<circle cx="1416.46" cy="47.5586" r="0.605482" fill="white" fill-opacity="0.3"/>
<circle cx="1093.2" cy="208.004" r="0.605482" fill="white" fill-opacity="0.3"/>
<circle cx="166.777" cy="253.988" r="0.605482" fill="white" fill-opacity="0.8"/>
<circle cx="1073.22" cy="349.582" r="0.605482" fill="white" fill-opacity="0.1"/>
<circle cx="1700.42" cy="928.715" r="0.605482" fill="white" fill-opacity="0.1"/>
<circle cx="95.7344" cy="692.809" r="0.605482" fill="white" fill-opacity="0.3"/>
<circle cx="1055.4" cy="774.457" r="0.605482" fill="white" fill-opacity="0.1"/>
<circle cx="1508" cy="1073.9" r="0.605482" fill="white" fill-opacity="0.3"/>
<circle cx="1636.79" cy="1030.99" r="0.605482" fill="white" fill-opacity="0.1"/>
<circle cx="518.281" cy="731.301" r="0.605482" fill="white" fill-opacity="0.1"/>
<circle cx="542.621" cy="746.605" r="0.605482" fill="white" fill-opacity="0.6"/>
<circle cx="905.355" cy="530.586" r="0.605482" fill="white" fill-opacity="0.3"/>
<circle cx="970.832" cy="197.59" r="0.605482" fill="white" fill-opacity="0.3"/>
<circle cx="1228" cy="884.676" r="0.605482" fill="white" fill-opacity="0.1"/>
<circle cx="1178.32" cy="466.199" r="0.605482" fill="white" fill-opacity="0.1"/>
<circle cx="1683.13" cy="649.125" r="0.605482" fill="white" fill-opacity="0.15"/>
<circle cx="1520.68" cy="721.484" r="0.605482" fill="white" fill-opacity="0.1"/>
<circle cx="80.7266" cy="546.23" r="0.605482" fill="white" fill-opacity="0.1"/>
<circle cx="1509.82" cy="646.012" r="0.605482" fill="white" fill-opacity="0.6"/>
<circle cx="1089" cy="293.297" r="0.605482" fill="white" fill-opacity="0.3"/>
<circle cx="1371.13" cy="859.992" r="0.605482" fill="white" fill-opacity="0.1"/>
<circle cx="789.781" cy="824.195" r="0.605482" fill="white" fill-opacity="0.1"/>
<circle cx="1190.45" cy="86.1133" r="0.605482" fill="white" fill-opacity="0.1"/>
<circle cx="657.129" cy="967.559" r="0.605482" fill="white" fill-opacity="0.15"/>
<circle cx="81.4258" cy="838.902" r="0.605482" fill="white" fill-opacity="0.1"/>
<circle cx="415.629" cy="993.918" r="0.605482" fill="white" fill-opacity="0.1"/>
<circle cx="857.902" cy="133.188" r="0.605482" fill="white" fill-opacity="0.15"/>
<circle cx="320.387" cy="213.48" r="0.605482" fill="white" fill-opacity="0.3"/>
<circle cx="709.871" cy="846.652" r="0.605482" fill="white" fill-opacity="0.15"/>
<circle cx="1288.23" cy="273.555" r="0.605482" fill="white" fill-opacity="0.3"/>
<circle cx="1571.61" cy="582.207" r="0.605482" fill="white" fill-opacity="0.15"/>
<circle cx="1506.33" cy="1085.63" r="0.605482" fill="white" fill-opacity="0.3"/>
<circle cx="424.355" cy="558.035" r="0.605482" fill="white" fill-opacity="0.1"/>
<circle cx="99.5547" cy="327.461" r="0.605482" fill="white" fill-opacity="0.3"/>
<circle cx="1733.46" cy="120.266" r="0.605482" fill="white" fill-opacity="0.1"/>
<circle cx="357.801" cy="273.219" r="0.605482" fill="white" fill-opacity="0.15"/>
<circle cx="1188.78" cy="154.742" r="0.605482" fill="white" fill-opacity="0.6"/>
<circle cx="1406.68" cy="409.457" r="0.605482" fill="white" fill-opacity="0.1"/>
<circle cx="1615.2" cy="327.84" r="0.605482" fill="white" fill-opacity="0.3"/>
<circle cx="1408.09" cy="544.293" r="0.605482" fill="white" fill-opacity="0.1"/>
<circle cx="1605.54" cy="953.039" r="0.605482" fill="white" fill-opacity="0.3"/>
<circle cx="677.941" cy="897.301" r="0.605482" fill="white" fill-opacity="0.1"/>
<circle cx="118.223" cy="1080.45" r="0.605482" fill="white" fill-opacity="0.3"/>
<circle cx="1701.88" cy="183.242" r="0.605482" fill="white" fill-opacity="0.1"/>
<circle cx="1414.61" cy="757.66" r="0.605482" fill="white" fill-opacity="0.1"/>
<circle cx="776.91" cy="333.254" r="0.605482" fill="white" fill-opacity="0.3"/>
<circle cx="570.23" cy="753.973" r="0.605482" fill="white" fill-opacity="0.15"/>
<circle cx="1504.9" cy="397.918" r="0.605482" fill="white" fill-opacity="0.1"/>
<circle cx="1538.29" cy="169.949" r="0.605482" fill="white" fill-opacity="0.3"/>
<circle cx="303.137" cy="652.379" r="0.605482" fill="white" fill-opacity="0.3"/>
<circle cx="1651.09" cy="290.129" r="0.605482" fill="white" fill-opacity="0.3"/>
<circle cx="1182.75" cy="615.656" r="0.605482" fill="white" fill-opacity="0.1"/>
<circle cx="1566.06" cy="1042.57" r="0.605482" fill="white" fill-opacity="0.15"/>
<circle cx="1298.84" cy="415.504" r="0.605482" fill="white" fill-opacity="0.1"/>
<circle cx="1743.53" cy="863.543" r="0.605482" fill="white" fill-opacity="0.15"/>
<circle cx="1412.22" cy="907.074" r="0.605482" fill="white" fill-opacity="0.15"/>
<circle cx="1671.3" cy="656.586" r="0.605482" fill="white" fill-opacity="0.1"/>
<circle cx="1742.55" cy="206.285" r="0.605482" fill="white" fill-opacity="0.1"/>
<circle cx="1698.74" cy="779.004" r="0.605482" fill="white" fill-opacity="0.3"/>
<circle cx="1669.39" cy="273.652" r="0.605482" fill="white" fill-opacity="0.3"/>
<circle cx="1080.2" cy="166.875" r="0.605482" fill="white" fill-opacity="0.7"/>
<circle cx="1644.32" cy="179.148" r="0.605482" fill="white" fill-opacity="0.3"/>
<circle cx="1503.84" cy="919.191" r="0.605482" fill="white" fill-opacity="0.1"/>
<circle cx="1538.97" cy="112.473" r="0.605482" fill="white" fill-opacity="0.3"/>
<circle cx="1721.12" cy="961.582" r="0.605482" fill="white" fill-opacity="0.3"/>
<circle cx="677.203" cy="327.5" r="0.605482" fill="white" fill-opacity="0.1"/>
<circle cx="913.004" cy="179.563" r="0.605482" fill="white" fill-opacity="0.15"/>
<circle cx="539.715" cy="595.945" r="0.605482" fill="white" fill-opacity="0.1"/>
<circle cx="1705.77" cy="965.184" r="0.605482" fill="white" fill-opacity="0.1"/>
<circle cx="826.852" cy="188.23" r="0.605482" fill="white" fill-opacity="0.3"/>
<circle cx="0.605482" cy="1040.02" r="0.605482" fill="white" fill-opacity="0.1"/>
<circle cx="1063.51" cy="72.3711" r="0.605482" fill="white" fill-opacity="0.3"/>
<circle cx="212.852" cy="756.062" r="0.605482" fill="white" fill-opacity="0.15"/>
<circle cx="1084.84" cy="791.551" r="0.605482" fill="white" fill-opacity="0.3"/>
<circle cx="879.355" cy="1005.48" r="0.605482" fill="white" fill-opacity="0.1"/>
<path d="M1477.02 154.633L1478.07 156.45H1475.97L1477.02 154.633Z" fill="white" fill-opacity="0.3"/>
<path d="M865.845 879.664L866.894 881.482H864.795L865.845 879.664Z" fill="white" fill-opacity="0.1"/>
<path d="M1636.14 17.0312L1637.19 18.8489H1635.09L1636.14 17.0312Z" fill="white" fill-opacity="0.1"/>
<path d="M793.181 698.332L794.23 700.15H792.131L793.181 698.332Z" fill="white" fill-opacity="0.15"/>
<path d="M1291.91 938.867L1292.96 940.685H1290.86L1291.91 938.867Z" fill="white" fill-opacity="0.1"/>
<path d="M1381.89 517.992L1382.94 519.81H1380.84L1381.89 517.992Z" fill="white" fill-opacity="0.1"/>
<path d="M306.563 949.09L307.613 950.907H305.514L306.563 949.09Z" fill="white" fill-opacity="0.1"/>
<path d="M755.798 630.578L756.847 632.396H754.748L755.798 630.578Z" fill="white" fill-opacity="0.1"/>
<path d="M665.149 1065.2L666.199 1067.01H664.1L665.149 1065.2Z" fill="white" fill-opacity="0.3"/>
<path d="M214.63 400.105L215.679 401.923H213.58L214.63 400.105Z" fill="white" fill-opacity="0.1"/>
<path d="M1495.13 184.684L1496.18 186.501H1494.08L1495.13 184.684Z" fill="white" fill-opacity="0.3"/>
<path d="M1533.96 302.984L1535.01 304.802H1532.91L1533.96 302.984Z" fill="white" fill-opacity="0.1"/>
<path d="M278.384 1052.43L279.433 1054.25H277.334L278.384 1052.43Z" fill="white" fill-opacity="0.6"/>
<path d="M888.79 177.844L889.839 179.661H887.74L888.79 177.844Z" fill="white" fill-opacity="0.1"/>
<path d="M1265.97 400.652L1267.02 402.47H1264.92L1265.97 400.652Z" fill="white" fill-opacity="0.3"/>
<path d="M841.204 973.078L842.253 974.896H840.155L841.204 973.078Z" fill="white" fill-opacity="0.1"/>
<path d="M1520.72 576.062L1521.77 577.88H1519.67L1520.72 576.062Z" fill="white" fill-opacity="0.1"/>
<path d="M1632.95 872.102L1634 873.919H1631.9L1632.95 872.102Z" fill="white" fill-opacity="0.3"/>
<path d="M1062.8 967.902L1063.85 969.72H1061.75L1062.8 967.902Z" fill="white" fill-opacity="0.3"/>
<path d="M984.227 793.242L985.277 795.06H983.178L984.227 793.242Z" fill="white" fill-opacity="0.1"/>
<path d="M1624.4 432.828L1625.45 434.646H1623.35L1624.4 432.828Z" fill="white" fill-opacity="0.3"/>
<path d="M292.462 713.547L293.511 715.365H291.412L292.462 713.547Z" fill="white" fill-opacity="0.3"/>
<path d="M667.384 860.664L668.433 862.482H666.334L667.384 860.664Z" fill="white" fill-opacity="0.1"/>
<path d="M642.759 1003.88L643.808 1005.7H641.709L642.759 1003.88Z" fill="white" fill-opacity="0.1"/>
<path d="M323.048 41.3086L323.305 42.2633L324.259 42.5203L323.305 42.7774L323.048 43.7321L322.791 42.7774L321.836 42.5203L322.791 42.2633L323.048 41.3086Z" fill="white" fill-opacity="0.8"/>
<path d="M167.259 552.547L167.516 553.502L168.47 553.759L167.516 554.016L167.259 554.97L167.002 554.016L166.047 553.759L167.002 553.502L167.259 552.547Z" fill="white" fill-opacity="0.1"/>
<path d="M1411.07 760.883L1411.32 761.838L1412.28 762.095L1411.32 762.352L1411.07 763.306L1410.81 762.352L1409.86 762.095L1410.81 761.838L1411.07 760.883Z" fill="white" fill-opacity="0.3"/>
<path d="M1399.11 276.609L1399.37 277.564L1400.32 277.821L1399.37 278.078L1399.11 279.033L1398.85 278.078L1397.9 277.821L1398.85 277.564L1399.11 276.609Z" fill="white" fill-opacity="0.3"/>
<path d="M822.727 178.73L822.984 179.685L823.939 179.942L822.984 180.199L822.727 181.154L822.47 180.199L821.516 179.942L822.47 179.685L822.727 178.73Z" fill="white" fill-opacity="0.3"/>
<path d="M764.466 467.812L764.723 468.767L765.677 469.024L764.723 469.281L764.466 470.236L764.209 469.281L763.254 469.024L764.209 468.767L764.466 467.812Z" fill="white" fill-opacity="0.1"/>
<path d="M1103.84 689.52L1104.1 690.474L1105.06 690.731L1104.1 690.988L1103.84 691.943L1103.59 690.988L1102.63 690.731L1103.59 690.474L1103.84 689.52Z" fill="white" fill-opacity="0.1"/>
<path d="M280.571 135.07L280.828 136.025L281.783 136.282L280.828 136.539L280.571 137.494L280.314 136.539L279.359 136.282L280.314 136.025L280.571 135.07Z" fill="white" fill-opacity="0.1"/>
<path d="M27.0868 413.742L27.3438 414.697L28.2985 414.954L27.3438 415.211L27.0868 416.166L26.8297 415.211L25.875 414.954L26.8297 414.697L27.0868 413.742Z" fill="white" fill-opacity="0.3"/>
<path d="M1196.48 457.996L1196.73 458.951L1197.69 459.208L1196.73 459.465L1196.48 460.42L1196.22 459.465L1195.27 459.208L1196.22 458.951L1196.48 457.996Z" fill="white" fill-opacity="0.1"/>
<path d="M318.095 852.461L318.352 853.416L319.306 853.673L318.352 853.93L318.095 854.884L317.838 853.93L316.883 853.673L317.838 853.416L318.095 852.461Z" fill="white" fill-opacity="0.3"/>
<path d="M676.544 897.77L676.801 898.724L677.756 898.981L676.801 899.238L676.544 900.193L676.287 899.238L675.332 898.981L676.287 898.724L676.544 897.77Z" fill="white" fill-opacity="0.1"/>
<path d="M585.837 599.383L586.094 600.338L587.049 600.595L586.094 600.852L585.837 601.806L585.58 600.852L584.625 600.595L585.58 600.338L585.837 599.383Z" fill="white" fill-opacity="0.1"/>
<path d="M697.716 0L697.973 0.954701L698.927 1.21175L697.973 1.4688L697.716 2.4235L697.459 1.4688L696.504 1.21175L697.459 0.954701L697.716 0Z" fill="white" fill-opacity="0.3"/>
<path d="M1432.12 124.734L1432.38 125.689L1433.33 125.946L1432.38 126.203L1432.12 127.158L1431.86 126.203L1430.91 125.946L1431.86 125.689L1432.12 124.734Z" fill="white" fill-opacity="0.1"/>
<path d="M462.255 907.715L462.512 908.67L463.466 908.927L462.512 909.184L462.255 910.138L461.998 909.184L461.043 908.927L461.998 908.67L462.255 907.715Z" fill="white" fill-opacity="0.3"/>
<path d="M917.384 665.352L917.641 666.306L918.595 666.563L917.641 666.82L917.384 667.775L917.127 666.82L916.172 666.563L917.127 666.306L917.384 665.352Z" fill="white" fill-opacity="0.3"/>
<path d="M1191.87 600.359L1192.13 601.314L1193.08 601.571L1192.13 601.828L1191.87 602.783L1191.61 601.828L1190.66 601.571L1191.61 601.314L1191.87 600.359Z" fill="white" fill-opacity="0.6"/>
<path d="M395.423 416.77L395.68 417.724L396.634 417.981L395.68 418.238L395.423 419.193L395.166 418.238L394.211 417.981L395.166 417.724L395.423 416.77Z" fill="white" fill-opacity="0.15"/>
<path d="M498.891 535.883L499.148 536.838L500.103 537.095L499.148 537.352L498.891 538.306L498.634 537.352L497.68 537.095L498.634 536.838L498.891 535.883Z" fill="white" fill-opacity="0.3"/>
<path d="M650.563 198.422L650.82 199.377L651.775 199.634L650.82 199.891L650.563 200.845L650.306 199.891L649.352 199.634L650.306 199.377L650.563 198.422Z" fill="white" fill-opacity="0.1"/>
<path d="M1685.56 362.559L1685.82 363.513L1686.78 363.77L1685.82 364.027L1685.56 364.982L1685.31 364.027L1684.35 363.77L1685.31 363.513L1685.56 362.559Z" fill="white" fill-opacity="0.1"/>
<path d="M1689.65 1032.88L1689.91 1033.83L1690.86 1034.09L1689.91 1034.34L1689.65 1035.3L1689.4 1034.34L1688.44 1034.09L1689.4 1033.83L1689.65 1032.88Z" fill="white" fill-opacity="0.1"/>
<path d="M357.794 622.977L358.051 623.931L359.006 624.188L358.051 624.445L357.794 625.4L357.537 624.445L356.582 624.188L357.537 623.931L357.794 622.977Z" fill="white" fill-opacity="0.6"/>
<path d="M436.493 503.434L436.75 504.388L437.705 504.645L436.75 504.902L436.493 505.857L436.236 504.902L435.281 504.645L436.236 504.388L436.493 503.434Z" fill="white" fill-opacity="0.1"/>
<path d="M452.352 835.156L452.609 836.111L453.564 836.368L452.609 836.625L452.352 837.58L452.095 836.625L451.141 836.368L452.095 836.111L452.352 835.156Z" fill="white" fill-opacity="0.1"/>
<path d="M1248.74 575.062L1249 576.017L1249.95 576.274L1249 576.531L1248.74 577.486L1248.49 576.531L1247.53 576.274L1248.49 576.017L1248.74 575.062Z" fill="white" fill-opacity="0.1"/>
<path d="M379.016 575.102L379.273 576.056L380.228 576.313L379.273 576.57L379.016 577.525L378.759 576.57L377.805 576.313L378.759 576.056L379.016 575.102Z" fill="white" fill-opacity="0.8"/>
<path d="M400.173 900.805L400.43 901.759L401.384 902.016L400.43 902.273L400.173 903.228L399.916 902.273L398.961 902.016L399.916 901.759L400.173 900.805Z" fill="white" fill-opacity="0.1"/>
<path d="M944.954 214.234L945.211 215.189L946.166 215.446L945.211 215.703L944.954 216.658L944.697 215.703L943.742 215.446L944.697 215.189L944.954 214.234Z" fill="white" fill-opacity="0.15"/>
<g style="mix-blend-mode:plus-lighter" opacity="0.7" filter="url(#filter0_f_3001_28837)">
<ellipse cx="960" cy="704" rx="620" ry="332" stroke="url(#paint0_linear_3001_28837)" stroke-width="368" stroke-linecap="round"/>
</g>
<defs>
<filter id="filter0_f_3001_28837" x="36" y="68" width="1848" height="1272" filterUnits="userSpaceOnUse" color-interpolation-filters="sRGB">
<feFlood flood-opacity="0" result="BackgroundImageFix"/>
<feBlend mode="normal" in="SourceGraphic" in2="BackgroundImageFix" result="shape"/>
<feGaussianBlur stdDeviation="60" result="effect1_foregroundBlur_3001_28837"/>
</filter>
<linearGradient id="paint0_linear_3001_28837" x1="960" y1="372" x2="960" y2="1131.46" gradientUnits="userSpaceOnUse">
<stop stop-opacity="0"/>
<stop offset="1" stop-color="#8A63FF"/>
<stop offset="1" stop-color="white" stop-opacity="0"/>
</linearGradient>
</defs>
</svg>
